PathFileType	4	(X/Y/Z)	C:\Users\Biomechanik\SynologyDrive\AlexP\Athlete_03\Athlete_3_25_03_31\Walking_05\marker_experimental.trc
DataRate	CameraRate	NumFrames	NumMarkers	Units	OrigDataRate	OrigDataStartFrame	OrigNumFrames
200.000000	200.000000	4	53	mm	200.000000	171	342
Frame#	Time	GLAB			RFHD			LFHD			C7			T6			SPINMOL			SPINM2			SPINM3			T12			BELTOL			BELT2			BELT3			SACROL			SACR2			SACR3			LTHOL			LTH2			LTH3			LSHAOL			LSHA2			LSHA3			LHEE			LTOE			LM5			RTHOL			RTH2			RTH3			RSHAOL			RSHA2			RSHA3			RHEE			RTOE			RM5			STRN			XIPH			LACR			LUAOL			LUA2			LUA3			LLAOL			LLA2			LLA3			LWRR			LWRU			RACR			RUAOL			RUA2			RUA3			RLAOL			RLA2			RLA3			RWRR			RWRU			
		X1	Y1	Z1	X2	Y2	Z2	X3	Y3	Z3	X4	Y4	Z4	X5	Y5	Z5	X6	Y6	Z6	X7	Y7	Z7	X8	Y8	Z8	X9	Y9	Z9	X10	Y10	Z10	X11	Y11	Z11	X12	Y12	Z12	X13	Y13	Z13	X14	Y14	Z14	X15	Y15	Z15	X16	Y16	Z16	X17	Y17	Z17	X18	Y18	Z18	X19	Y19	Z19	X20	Y20	Z20	X21	Y21	Z21	X22	Y22	Z22	X23	Y23	Z23	X24	Y24	Z24	X25	Y25	Z25	X26	Y26	Z26	X27	Y27	Z27	X28	Y28	Z28	X29	Y29	Z29	X30	Y30	Z30	X31	Y31	Z31	X32	Y32	Z32	X33	Y33	Z33	X34	Y34	Z34	X35	Y35	Z35	X36	Y36	Z36	X37	Y37	Z37	X38	Y38	Z38	X39	Y39	Z39	X40	Y40	Z40	X41	Y41	Z41	X42	Y42	Z42	X43	Y43	Z43	X44	Y44	Z44	X45	Y45	Z45	X46	Y46	Z46	X47	Y47	Z47	X48	Y48	Z48	X49	Y49	Z49	X50	Y50	Z50	X51	Y51	Z51	X52	Y52	Z52	X53	Y53	Z53	

172	0.855	483.2794189453123	1598.095947265625	210.7275848388673	433.5262451171873	1631.4443359375	272.2129516601563	444.1610107421874	1619.708129882812	134.5946655273438	251.5968780517577	1445.812866210938	204.1577301025391	194.8388519287108	1275.355590820312	207.241943359375	188.0808868408202	1234.758422851562	187.4461212158203	181.1243896484374	1228.684204101562	236.9366302490235	192.7302856445311	1171.213745117188	205.4828796386719	217.5569458007812	1106.55615234375	210.1643371582032	182.7940979003905	1073.644775390625	193.3379821777344	181.1609954833983	1071.214965820312	243.7552947998047	176.9449005126952	1011.428039550781	214.3682098388672	193.7152252197265	961.5767822265625	197.7198333740235	193.8050537109374	959.535400390625	249.671142578125	181.7727050781249	900.3163452148438	220.8623046875	313.0190429687499	676.932373046875	47.42393875122076	266.4983825683593	618.474853515625	73.68438720703129	315.3767089843749	617.6505737304688	63.01602935791021	316.1828918457031	321.17529296875	72.05528259277349	268.0597839355469	259.12353515625	85.34460449218754	318.1415405273438	259.7508239746094	81.03228759765631	249.5681915283203	70.56648254394533	178.4046630859376	468.6536560058593	46.26076889038089	181.1068725585938	422.5315856933594	29.80842781066897	79.36068725585945	329.5368347167968	680.795166015625	422.2506103515626	395.8376159667968	645.9288940429688	448.8492126464844	358.0417480468749	625.9769287109375	423.0621032714844	301.1078186035156	430.9036560058594	425.3592224121094	276.0268554687499	356.4566955566406	422.4156494140626	254.5391387939452	396.188720703125	402.5403747558594	101.1284484863281	270.4607849121094	273.24365234375	216.5784606933593	95.9275360107422	309.9824218750001	157.3440856933593	129.0557250976562	398.3119201660157	420.2588806152343	1345.143432617188	214.9318237304688	438.8962402343749	1201.8720703125	222.0638275146485	332.1556396484374	1400.538940429688	35.0877532958985	332.2079772949218	1244.594116210938	-63.09515380859369	322.5343933105468	1182.484741210938	-83.17981719970697	367.4485778808593	1188.9990234375	-59.47645187377923	380.5242004394531	984.5704345703125	-107.7782821655273	353.1051635742187	911.9652709960938	-93.3708190917968	399.4714355468749	926.129638671875	-105.1732177734374	440.6242370605468	830.897216796875	-103.6669235229491	479.0692749023437	843.3903198242188	-34.96034622192374	326.4140014648436	1409.512329101562	378.0762939453126	303.7889099121092	1265.451904296875	481.0364074707032	327.131622314453	1204.376708984375	492.2427062988282	277.3363037109373	1209.260986328125	504.4672241210938	320.0821838378905	990.2147827148438	544.8759765625001	381.7516784667967	947.230712890625	572.6359863281251	340.3947143554686	930.7050170898438	549.5762939453126	390.2750854492186	856.507568359375	565.4031372070314	430.018829345703	846.26123046875	494.1058044433594	
173	0.86	489.5909423828123	1598.5927734375	210.8440093994141	439.8638916015623	1631.905883789062	272.3673095703126	450.5301513671874	1620.394775390625	134.7307739257813	257.8209838867186	1446.474365234375	203.9809875488282	201.1239776611327	1275.964721679688	206.9474182128907	194.3654785156249	1235.378173828125	187.1237030029297	187.4567871093749	1229.284301757812	236.6240539550782	199.0685272216796	1171.82861328125	205.1382141113282	223.9096069335937	1107.219970703125	209.8306732177735	188.989776611328	1074.390258789062	193.163314819336	187.4474029541014	1071.975341796875	243.5801696777344	183.1541900634765	1012.187683105469	214.2275085449219	199.9161987304687	962.28662109375	197.8380584716797	200.2284393310546	960.4061279296875	249.7775573730469	187.9187011718749	901.1382446289062	221.2461242675782	316.0634155273437	677.7500610351562	47.37702178955084	269.1640014648437	619.8916015625	74.27835083007817	317.9406738281249	618.4539184570312	63.15172195434576	316.7127075195312	321.6593322753906	72.22990417480474	268.423583984375	259.7809143066406	85.71614074707036	318.4999389648438	260.2477722167969	81.27572631835943	249.8685302734375	71.05133056640626	178.6587829589844	468.7969360351562	46.15849685668948	181.1348571777345	422.5336303710938	29.82214546203616	79.37353515625007	339.0689392089843	681.7484130859375	422.4654846191407	406.1309814453124	647.6683959960938	448.0512390136719	368.1536865234374	627.2713012695312	422.9898376464844	313.6171874999999	429.7094421386719	424.6311950683594	290.2615966796874	354.7669372558594	421.0928039550782	267.6345214843749	394.1767883300781	401.9247741699219	116.0252304077148	265.1205749511719	272.2012329101562	237.2081756591796	94.50003051757814	309.0101928710938	177.1281738281249	125.8452377319336	397.3987426757813	426.4263305664061	1345.91162109375	214.7097473144532	445.1194458007811	1202.61181640625	221.6606597900391	338.2931213378905	1401.484375	34.92901611328131	339.1838989257812	1245.763549804688	-63.54957962036126	329.9439392089843	1183.596069335938	-83.69708251953119	374.8253173828124	1190.428466796875	-59.97052383422844	390.3508605957031	986.2726440429688	-108.3405532836913	364.0301513671874	913.2816162109375	-93.91182708740227	410.2114562988281	928.1571655273438	-105.5754318237304	452.8786621093749	833.6160278320312	-103.7754592895507	490.9040832519531	846.8449096679688	-34.98754119873038	332.5726928710936	1410.11279296875	377.8887329101563	309.2370605468748	1266.102294921875	480.9080200195313	332.3439331054686	1204.960327148438	492.2222595214844	282.4930114746092	1209.995361328125	504.1399230957032	324.1390380859373	990.9864501953125	545.0262451171876	385.331573486328	947.6072998046875	573.1783447265626	344.0274658203123	931.3079223632812	549.9282836914064	393.2390136718748	856.7799682617188	566.1527099609376	433.1906433105467	846.0619506835938	495.0629272460938	
174	0.865	495.9024047851561	1599.0234375	210.9933471679688	446.2004089355467	1632.296020507812	272.5557250976563	456.9010314941405	1621.020263671875	134.9006652832032	264.045440673828	1447.075073242188	203.8274230957032	207.4017791748046	1276.515502929688	206.681640625	200.6373596191405	1235.938110351562	186.8314971923828	193.7804565429686	1229.826049804688	236.3424987792969	205.3945922851561	1172.384521484375	204.8262481689453	230.2498016357421	1107.81982421875	209.5343170166016	195.1557464599609	1075.040771484375	193.0470428466797	193.7161102294921	1072.646484375	243.4647979736328	189.3472900390624	1012.853149414062	214.150863647461	206.0959167480468	962.9270629882812	197.9860229492188	206.6535491943358	961.1870727539062	249.9092407226563	194.0561523437499	901.8829345703125	221.6468048095703	319.1366577148437	678.5308227539062	47.34363174438482	271.8688964843749	621.2603759765625	74.85737609863287	320.5344238281249	619.2295532226562	63.29070281982428	317.3385620117188	322.1322937011719	72.41732788085943	268.8778381347656	260.422607421875	86.06061553955082	318.9518127441406	260.734619140625	81.54156494140631	250.1831512451172	71.54501342773439	178.9212341308594	468.9453735351562	46.04804611206058	181.1728057861329	422.5405578613281	29.84343147277835	79.3950500488282	348.5438537597655	682.6787109375	422.7089843750001	416.327178955078	649.3662109375	447.2314147949219	378.1727905273436	628.5466918945312	422.9261779785157	326.0490112304687	428.3161315917969	423.9100952148438	304.5179748535156	352.8882751464844	419.7454833984376	280.7057800292968	391.9253540039062	401.3160705566407	131.1197052001952	259.4533996582031	271.2128295898438	257.9824829101562	92.99803924560548	308.0636596679688	197.104019165039	122.4961624145508	396.5137634277344	432.591094970703	1346.60791015625	214.5054931640626	451.3361511230468	1203.281860351562	221.2691650390626	344.436065673828	1402.367065429688	34.79347991943366	346.1501159667968	1246.885620117188	-63.98526000976556	337.3055419921874	1184.662963867188	-84.16786193847651	382.1760559082031	1191.805419921875	-60.45693969726555	400.1261596679687	987.9461669921875	-108.8858642578124	374.9254455566406	914.5860595703125	-94.39784240722649	420.9012145996093	930.1729125976562	-105.9543685913085	465.0845031738281	836.3506469726562	-103.8474349975585	502.6938476562499	850.3214111328125	-34.99237823486319	338.7366333007811	1410.643798828125	377.7207336425782	314.6830444335936	1266.691284179688	480.7996215820313	337.5477905273436	1205.480712890625	492.2195739746094	287.6436157226561	1210.674072265625	503.8301696777344	328.1779174804686	991.6952514648438	545.1874389648439	388.8872070312498	947.9357299804688	573.7479248046876	347.6581726074217	931.8564453125	550.2827148437501	396.2081909179686	857.0161743164062	566.9075317382814	436.3934936523436	845.8493041992188	496.0445556640626	
175	0.87	502.2150573730467	1599.386840820312	211.174041748047	452.536651611328	1632.614013671875	272.7766418457032	463.2744140624999	1621.58203125	135.102752685547	270.2714233398436	1447.613037109375	203.6974182128907	213.6730499267577	1277.005859375	206.4443054199219	206.8972930908202	1236.436279296875	186.5692901611328	200.0957794189452	1230.307495117188	236.0912780761719	211.7089538574218	1172.879272460938	204.5462951660157	236.5778656005859	1108.354248046875	209.2743682861329	201.2948455810546	1075.599243164062	192.9871368408203	199.9699859619139	1073.230102539062	243.4067840576172	195.5259246826171	1013.426879882812	214.1357116699219	212.2540435791015	963.4990844726562	198.1642608642578	213.0799102783202	961.878173828125	250.0662536621094	200.188003540039	902.55029296875	222.0618438720703	322.2484130859374	679.2698364257812	47.31835937500006	274.6206054687499	622.57421875	75.41069793701178	323.1679992675781	619.971435546875	63.42729568481451	318.0673217773438	322.5896301269531	72.61682128906256	269.4277648925781	261.0444946289062	86.37413787841801	319.5027770996094	261.20654296875	81.82738494873053	250.5086059570312	72.04436492919923	179.1931915283204	469.0973815917968	45.93099594116214	181.2203216552735	422.5529479980469	29.87285041809085	79.42685699462898	357.9571228027343	683.5798950195312	422.9733886718751	426.4178466796874	651.012451171875	446.3878173828126	388.0954589843749	629.7955932617188	422.8637390136719	338.4103698730468	426.7357482910156	423.1856994628907	318.7918090820312	350.8402099609375	418.3812866210938	293.7596435546874	389.4491271972656	400.7064819335938	146.4190826416015	253.4778594970703	270.2853088378906	278.8934936523437	91.44129943847658	307.1451110839844	217.2687530517577	119.0257720947266	395.6609191894532	438.7546997070311	1347.229370117188	214.3194732666016	457.5476074218749	1203.87890625	220.8896484375001	350.5854187011718	1403.184326171875	34.68169784545905	353.1094665527343	1247.957153320312	-64.40103149414055	344.6222534179687	1185.680908203125	-84.58966827392572	389.5043334960937	1193.12646484375	-60.93420410156243	409.8528747558593	989.5877685546875	-109.4141693115234	385.7898559570312	915.8765869140625	-94.83265686035149	431.5411071777343	932.1734008789062	-106.311065673828	477.2383728027343	839.0956420898438	-103.8837051391601	514.4345092773438	853.8148193359375	-34.97479248046866	344.9048461914061	1411.102294921875	377.5727844238282	320.1298217773436	1267.2158203125	480.7106323242188	342.7477111816405	1205.934936523438	492.2333679199219	292.7926940917967	1211.29296875	503.5393981933594	332.2039794921873	992.3377685546875	545.3590698242189	392.4245300292967	948.2125854492188	574.3423461914064	351.2912292480467	932.3473510742188	550.6401367187501	399.1860351562498	857.2108154296875	567.6663208007814	439.6316528320311	845.6181640625	497.0502014160157	
